<svg width="24" height="24" viewBox="0 0 24 24" fill="none" xmlns="http://www.w3.org/2000/svg">
<path d="M21.0002 6H7.05023L5.94023 2.68C5.87315 2.48138 5.74534 2.30887 5.57486 2.18685C5.40439 2.06482 5.19988 1.99946 4.99023 2H1.99023V4H4.27023L7.81023 14.63C7.9427 15.0291 8.19759 15.3763 8.53868 15.6223C8.87978 15.8682 9.28972 16.0004 9.71023 16H17.3002C17.7072 15.9993 18.1042 15.8745 18.4383 15.6422C18.7725 15.4099 19.0278 15.0812 19.1702 14.7L21.9302 7.35C22.0402 7.04 22.0002 6.7 21.8202 6.43C21.7283 6.29754 21.6058 6.18925 21.463 6.11438C21.3202 6.03951 21.1615 6.00027 21.0002 6ZM17.3102 14H9.72023L7.72023 8H19.5602L17.3102 14ZM10.0002 18C9.4698 18 8.96109 18.2107 8.58602 18.5858C8.21095 18.9609 8.00023 19.4696 8.00023 20C8.00023 20.5304 8.21095 21.0391 8.58602 21.4142C8.96109 21.7893 9.4698 22 10.0002 22C10.5307 22 11.0394 21.7893 11.4144 21.4142C11.7895 21.0391 12.0002 20.5304 12.0002 20C12.0002 19.4696 11.7895 18.9609 11.4144 18.5858C11.0394 18.2107 10.5307 18 10.0002 18ZM17.0002 18C16.4698 18 15.9611 18.2107 15.586 18.5858C15.2109 18.9609 15.0002 19.4696 15.0002 20C15.0002 20.5304 15.2109 21.0391 15.586 21.4142C15.9611 21.7893 16.4698 22 17.0002 22C17.5307 22 18.0394 21.7893 18.4144 21.4142C18.7895 21.0391 19.0002 20.5304 19.0002 20C19.0002 19.4696 18.7895 18.9609 18.4144 18.5858C18.0394 18.2107 17.5307 18 17.0002 18Z" fill="black"/>
</svg>
